<svg width="236" height="151" viewBox="0 0 236 151" fill="none" xmlns="http://www.w3.org/2000/svg">
<path d="M78.2007 60.6202C79.5607 59.7002 78.8407 56.7902 81.5407 58.0402C81.8907 55.8602 82.1807 53.8002 82.5707 51.7602C82.6707 51.2702 83.1307 50.8502 83.4207 50.4002C83.7607 50.8102 84.3007 51.1802 84.4007 51.6502C84.9107 54.0602 85.3707 56.4802 85.7207 58.9202C85.9707 60.6202 86.7607 61.0802 88.4507 60.3602C88.2907 59.2002 88.1307 58.0302 87.9607 56.8702C86.9707 49.9002 89.6707 43.7802 92.5607 37.7802C98.7407 24.9502 106.721 13.2102 115.021 1.69016C115.191 1.45016 115.261 1.13016 115.561 0.410156C118.431 4.53016 120.931 8.04015 123.351 11.6002C129.561 20.7502 135.531 30.0602 139.941 40.2402C141.531 43.9102 142.731 47.8202 143.511 51.7302C144.061 54.5102 143.621 57.4802 143.621 60.6902C144.721 60.6902 146.351 60.8302 147.941 60.6102C148.461 60.5402 149.101 59.6002 149.251 58.9602C149.791 56.6302 150.111 54.2602 150.611 51.9202C150.731 51.3602 151.241 50.8902 151.581 50.3902C151.901 50.9002 152.421 51.3702 152.521 51.9202C152.901 53.9002 153.141 55.9002 153.451 58.0302C156.101 56.9002 155.601 59.4602 156.821 61.1502C157.921 52.2402 158.951 43.9502 159.981 35.6702C160.321 35.6402 160.661 35.6202 160.991 35.5902C161.231 36.6902 161.611 37.7902 161.701 38.9002C162.531 48.9502 163.311 59.0102 164.101 69.0602C164.151 69.6501 164.221 70.2302 164.771 70.9002C165.161 68.6402 165.491 66.3602 165.961 64.1202C166.181 63.0902 166.661 62.1202 167.021 61.1302C167.521 62.1002 168.151 63.0302 168.501 64.0502C168.971 65.4202 169.221 66.8602 170.101 68.2502C170.511 62.3202 170.931 56.3902 171.341 50.4602C171.751 50.4202 172.151 50.3902 172.561 50.3502C173.321 53.7002 174.071 57.0402 174.961 60.9602C175.621 59.3402 176.051 58.3002 176.471 57.2702C176.691 57.2402 176.911 57.2102 177.131 57.1802C178.051 58.9602 178.961 60.7402 180.181 63.1102C181.351 57.9902 182.391 53.4502 183.431 48.9102C183.811 48.9302 184.191 48.9402 184.561 48.9602C185.981 55.4002 185.821 62.0802 187.421 68.6602C188.201 65.4002 188.991 62.1402 189.771 58.8802C190.041 58.8402 190.321 58.8002 190.591 58.7602C191.431 60.6202 192.261 62.4902 193.361 64.9202C194.111 62.0702 194.691 59.8402 195.271 57.6102C195.521 57.5602 195.771 57.5202 196.021 57.4702C197.191 59.2202 198.531 60.8902 199.471 62.7502C200.671 65.1002 202.271 65.9802 204.961 65.8602C210.251 65.6301 215.561 65.7701 220.861 65.8102C221.701 65.8202 222.531 66.0902 223.361 66.2402C223.351 66.5302 223.331 66.8102 223.321 67.1002C222.511 67.2302 221.701 67.4702 220.891 67.4702C214.771 67.5002 208.641 67.4402 202.521 67.5102C201.071 67.5302 200.181 67.0402 199.471 65.7802C198.601 64.2302 197.531 62.8002 196.191 60.8002C195.411 63.9002 194.761 66.4801 194.111 69.0602C193.851 69.1102 193.591 69.1702 193.331 69.2202C192.501 67.4302 191.671 65.6302 190.601 63.3202C190.201 64.7202 189.871 65.7002 189.661 66.7102C189.051 69.6302 188.531 72.5802 187.881 75.4902C187.761 76.0102 187.181 76.4302 186.821 76.9002C186.561 76.4102 186.131 75.9502 186.071 75.4402C185.471 70.5502 184.931 65.6502 184.371 60.7602C184.231 59.5902 184.061 58.4202 183.401 57.1802C182.571 60.5102 181.741 63.8502 180.921 67.1802C180.611 67.2102 180.311 67.2402 180.001 67.2702C179.131 65.4102 178.271 63.5602 177.191 61.2502C176.421 63.4602 175.841 65.1501 175.251 66.8401C174.981 66.8502 174.711 66.8602 174.441 66.8702C173.901 64.8302 173.371 62.8002 172.831 60.7602C172.671 60.7602 172.511 60.7702 172.351 60.7702C172.121 64.2902 171.891 67.8002 171.681 71.3202C171.601 72.7402 171.651 74.1702 171.481 75.5702C171.411 76.1402 170.931 76.6601 170.641 77.2001C170.271 76.7201 169.711 76.3002 169.561 75.7502C168.861 73.2502 168.271 70.7302 167.641 68.2102C167.451 68.2102 167.251 68.2001 167.061 68.2001C166.341 72.8102 165.621 77.4202 164.901 82.0302C164.601 82.0602 164.301 82.0902 164.011 82.1202C163.761 81.3902 163.351 80.6702 163.291 79.9302C162.481 70.0302 161.731 60.1202 160.951 50.2102C160.901 49.5702 160.781 48.9302 160.191 48.2702C159.701 51.9602 159.201 55.6502 158.721 59.3502C158.471 61.2802 158.291 63.2102 158.041 65.1402C157.821 66.8002 157.741 66.8302 155.941 66.5702C155.941 69.3202 155.981 72.0702 155.911 74.8202C155.891 75.4702 155.491 76.1102 155.261 76.7602C154.871 76.1602 154.231 75.5902 154.131 74.9402C153.381 70.0702 152.751 65.1802 152.061 60.3002C151.951 59.5302 151.751 58.7702 151.501 57.5702C149.991 62.4302 149.981 62.5802 145.281 62.3702C142.941 62.2702 141.951 63.1101 141.051 65.2001C134.501 80.4501 113.841 86.1902 100.251 76.7402C95.5007 73.4402 92.0607 69.2002 89.7007 63.9702C89.4007 63.3102 88.4407 62.4602 87.8707 62.5202C85.3507 62.7702 84.0807 61.8502 84.0407 59.2802C84.0407 59.0002 83.8707 58.7302 83.3907 58.4002C83.2507 59.0502 83.0707 59.7002 82.9807 60.3602C82.2607 65.3102 81.5807 70.2702 80.8007 75.2102C80.7107 75.7902 80.0907 76.2902 79.7207 76.8302C79.5007 76.2602 79.1007 75.6902 79.0907 75.1102C79.0207 72.3502 79.0607 69.5902 79.0607 66.7102C76.8807 67.1302 77.0207 65.4402 76.8507 64.0602C76.2007 58.8102 75.5707 53.5602 74.9307 48.3002C74.7407 48.2902 74.5407 48.2802 74.3507 48.2802C74.0907 51.4102 73.8307 54.5402 73.5707 57.6702C72.9607 65.1902 72.3607 72.7102 71.7107 80.2302C71.6507 80.8802 71.2907 81.5002 71.0707 82.1402C70.7807 82.1402 70.5007 82.1402 70.2107 82.1402C69.4507 77.3801 68.6907 72.6202 67.9307 67.8702C67.7507 67.8802 67.5607 67.8801 67.3807 67.8902C66.7807 70.4902 66.2107 73.0901 65.5507 75.6702C65.4107 76.2301 64.9107 76.7002 64.5807 77.2102C64.2707 76.6302 63.7307 76.0702 63.6907 75.4702C63.3607 71.3702 63.1407 67.2702 62.8807 63.1702C62.8307 62.2902 62.7807 61.4102 62.2507 60.4402C61.6807 62.5902 61.1107 64.7302 60.5507 66.8802C60.2707 66.8702 59.9807 66.8602 59.7007 66.8502C59.1607 65.1702 58.6307 63.4902 57.9307 61.3102C56.8107 63.5702 55.9107 65.3802 55.0207 67.1802C54.7907 67.1802 54.5607 67.1802 54.3307 67.1802C52.6607 63.9602 52.9707 60.0802 51.1707 56.7902C50.3807 63.5402 49.5907 70.2902 48.8007 77.0302C48.4807 77.0501 48.1607 77.0802 47.8407 77.1002C46.1607 72.9302 46.0207 68.3102 44.4607 63.4402C43.4507 65.6302 42.6607 67.3702 41.5807 69.7102C39.8307 66.8102 39.9207 63.9602 38.7407 61.0502C37.5407 62.8202 36.4407 64.2602 35.5507 65.8302C34.8807 67.0102 34.0707 67.5102 32.7007 67.5002C26.3507 67.4501 20.0107 67.5002 13.6607 67.4402C13.0207 67.4302 12.3907 67.0002 11.7507 66.7702C12.3907 66.4402 13.0307 65.8202 13.6707 65.8102C19.4207 65.7402 25.1707 65.7002 30.9207 65.8302C32.8807 65.8702 34.1007 65.2602 35.0507 63.5402C36.2207 61.4302 37.6407 59.4602 38.9507 57.4302C39.2207 57.4802 39.5007 57.5202 39.7707 57.5702C40.3507 59.7802 40.9307 62.0002 41.5207 64.2102C41.6807 64.2302 41.8407 64.2602 42.0007 64.2802C42.5507 62.9402 43.0407 61.5602 43.6907 60.2702C43.9507 59.7502 44.5507 59.4102 44.9907 58.9802C45.2607 59.4602 45.6807 59.9102 45.7907 60.4302C46.2607 62.5402 46.6307 64.6802 47.0707 66.8002C47.2007 67.4202 47.4207 68.0102 48.0707 68.5702C48.7007 63.0302 49.3407 57.4902 49.9707 51.9502C50.0307 51.4302 49.9807 50.8702 50.1607 50.4002C50.3407 49.9102 50.7407 49.4902 51.0507 49.0502C51.3807 49.4802 51.8907 49.8702 52.0107 50.3502C52.8107 53.6902 53.5207 57.0502 54.2707 60.4002C54.4307 61.1002 54.6507 61.7802 54.9807 63.0002C56.0807 60.7602 56.9407 59.0102 58.1307 56.5802C58.9607 58.3302 59.4807 59.4502 60.0907 60.7402C61.5307 57.3602 60.9407 53.5102 62.7407 50.4002C63.0407 50.4102 63.3407 50.4302 63.6507 50.4402C64.0907 56.4602 64.5207 62.4702 64.9607 68.4902C65.1307 68.5002 65.3007 68.5201 65.4607 68.5302C65.9607 66.4801 66.4207 64.4302 67.0007 62.4002C67.1407 61.9202 67.6507 61.5502 68.0007 61.1302C68.3007 61.5902 68.7807 62.0102 68.8707 62.5102C69.3507 65.2902 69.7407 68.0901 70.1707 70.8902C70.3907 70.9002 70.6007 70.9002 70.8207 70.9102C71.7607 59.1702 72.6907 47.4402 73.6307 35.7002C73.9607 35.6602 74.2807 35.6202 74.6107 35.5802C74.8707 36.3102 75.2607 37.0302 75.3607 37.7802C76.2707 44.9702 77.1307 52.1602 78.0107 59.3502C78.0207 59.7002 78.1007 60.0602 78.2007 60.6202ZM115.811 5.86016C114.821 7.16016 114.111 8.02016 113.481 8.93016C110.891 12.6802 108.231 16.3802 105.781 20.2202C100.751 28.0902 95.8607 36.0402 92.7107 44.9102C89.7107 53.3702 91.6707 60.9102 97.2107 67.4902C105.031 76.7802 118.481 78.7502 128.471 72.4402C139.211 65.6602 143.111 53.6302 137.541 42.0102C133.491 33.5502 128.561 25.5102 123.781 17.4102C121.481 13.5302 118.651 9.95016 115.811 5.86016Z" fill="white"/>
<path d="M20.5708 99.9885C24.9308 99.9885 29.1708 99.8085 33.3708 100.058C35.7408 100.198 37.8608 101.348 38.5308 103.988C39.1208 106.318 38.2908 107.828 36.4008 109.218C37.1608 110.378 38.1308 111.608 38.8208 112.978C40.6408 116.558 38.6408 120.538 34.2608 121.028C29.8008 121.518 25.2408 121.138 20.5708 121.138C20.5708 114.208 20.5708 107.088 20.5708 99.9885ZM28.9408 117.598C30.0308 117.428 31.2308 117.488 32.1808 117.018C32.9008 116.668 33.6308 115.678 33.7208 114.908C33.7908 114.258 33.0508 112.988 32.4908 112.878C30.5608 112.488 28.5608 112.438 26.5908 112.368C26.3308 112.358 25.9208 112.908 25.8108 113.268C24.9108 116.278 25.8608 117.548 28.9408 117.598ZM29.3808 108.588C29.4908 108.578 30.3908 108.768 30.9308 108.408C31.8108 107.818 33.0608 106.868 33.0408 106.098C33.0208 105.308 31.7808 104.228 30.8508 103.868C29.8108 103.468 28.4708 103.548 27.3408 103.778C26.7308 103.898 25.9008 104.718 25.8108 105.318C25.3708 108.338 25.6808 108.598 29.3808 108.588Z" fill="white"/>
<path d="M93.8508 106.69C93.8508 103.78 93.8508 101.2 93.8508 98.5C95.6108 98.5 97.1608 98.5 98.8708 98.5C98.8708 106.06 98.8708 113.62 98.8708 121.37C97.3208 121.37 95.7308 121.37 93.9808 121.37C93.8908 120.95 93.7608 120.41 93.6508 119.89C87.8808 122.97 83.2208 122.47 81.1608 115.53C80.1108 112.01 80.7808 108.51 83.9208 106.03C86.5408 103.97 89.7408 104.16 93.8508 106.69ZM93.7908 113.3C93.8308 110.78 92.1008 108.71 89.9308 108.69C87.8008 108.67 86.1208 110.55 86.0608 113.03C86.0008 115.72 87.5008 117.6 89.7608 117.67C92.0408 117.74 93.7508 115.88 93.7908 113.3Z" fill="white"/>
<path d="M122.751 103.191C121.721 104.421 120.771 105.551 119.691 106.831C117.801 105.061 115.721 103.601 113.131 104.221C111.771 104.551 110.341 105.391 109.391 106.411C107.281 108.691 107.541 112.781 109.671 115.051C112.231 117.771 115.581 117.641 119.581 114.571C120.561 115.631 121.561 116.711 122.561 117.791C118.841 122.421 111.111 123.171 106.411 119.281C101.661 115.351 100.911 108.181 104.771 103.651C109.281 98.3605 117.061 98.0705 122.751 103.191Z" fill="white"/>
<path d="M150.831 121.55C148.871 121.55 147.321 121.55 145.611 121.55C145.611 116 145.611 110.52 145.611 104.85C147.241 104.85 148.831 104.85 150.581 104.85C150.711 105.43 150.861 106.11 150.921 106.41C152.731 105.77 154.451 104.8 156.241 104.61C159.811 104.23 162.381 106.39 162.611 109.97C162.851 113.75 162.661 117.55 162.661 121.47C160.961 121.47 159.351 121.47 157.401 121.47C157.401 118.85 157.411 116.2 157.401 113.55C157.381 110.61 156.391 109.22 154.361 109.22C152.281 109.22 150.921 110.84 150.861 113.57C150.781 116.16 150.831 118.76 150.831 121.55Z" fill="white"/>
<path d="M166.881 104.91C171.431 104.25 171.821 104.38 172.161 106.31C174.031 105.72 175.891 104.77 177.821 104.61C181.111 104.34 183.601 106.63 183.751 109.95C183.931 113.73 183.791 117.53 183.791 121.47C182.081 121.47 180.471 121.47 178.511 121.47C178.511 118.81 178.521 116.08 178.511 113.36C178.491 110.62 177.481 109.24 175.531 109.22C173.481 109.2 172.121 110.76 172.071 113.33C172.021 116 172.061 118.67 172.061 121.48C170.251 121.48 168.651 121.48 166.871 121.48C166.881 115.99 166.881 110.52 166.881 104.91Z" fill="white"/>
<path d="M133.301 121.728C127.651 121.728 124.051 118.348 124.081 113.088C124.111 107.928 127.671 104.598 133.201 104.578C138.781 104.558 142.511 108.028 142.471 113.208C142.431 118.298 138.741 121.728 133.301 121.728ZM137.041 113.268C137.071 110.768 135.451 108.818 133.321 108.788C131.121 108.758 129.531 110.558 129.511 113.138C129.481 115.748 130.981 117.568 133.191 117.598C135.371 117.638 137.011 115.788 137.041 113.268Z" fill="white"/>
<path d="M203.331 114.559C199.501 114.559 195.801 114.559 192.061 114.559C192.821 118.059 195.821 118.699 199.851 116.209C200.651 116.969 201.501 117.779 202.331 118.559C200.751 122.049 193.601 122.389 190.591 120.749C186.951 118.769 185.321 114.119 186.891 109.859C188.401 105.779 192.891 103.659 197.601 104.819C201.811 105.839 204.021 109.459 203.331 114.559ZM198.141 111.649C198.171 109.519 197.151 108.309 195.301 108.239C193.481 108.169 192.201 109.449 191.991 111.649C194.041 111.649 196.091 111.649 198.141 111.649Z" fill="white"/>
<path d="M16.9808 114.451C13.3108 114.451 9.60076 114.451 5.87076 114.451C6.17076 117.971 9.43076 118.711 13.7308 116.161C14.3908 117.031 15.1008 117.981 15.8808 119.011C14.2808 122.081 7.17076 122.551 3.87076 120.531C0.380763 118.381 -0.999236 113.491 0.770764 109.411C2.50076 105.401 7.27077 103.541 11.9908 105.031C15.7708 106.221 17.8108 109.961 16.9808 114.451ZM5.43076 111.641C7.76076 111.641 9.87077 111.641 12.0608 111.641C12.0208 109.571 10.9908 108.411 9.14076 108.291C7.10076 108.171 5.88076 109.331 5.43076 111.641Z" fill="white"/>
<path d="M73.8908 107.922C74.7008 110.202 75.3107 112.322 76.1907 114.332C77.0607 116.312 78.3007 118.112 79.1907 120.082C80.5407 123.102 79.5407 125.802 76.3807 126.642C74.3307 127.192 71.9507 127.172 69.8707 126.702C67.1307 126.092 65.9907 123.652 66.6207 120.702C67.7107 115.592 70.7808 111.612 73.8908 107.922Z" fill="white"/>
<path d="M60.0408 100.289C61.2308 102.979 62.3908 105.649 63.6108 108.309C64.2308 109.669 65.0308 110.949 65.5908 112.329C66.8108 115.379 65.6508 117.859 62.5108 118.839C61.3908 119.189 60.1608 119.379 58.9908 119.339C53.9708 119.179 51.7208 116.169 53.2608 111.409C54.6808 107.039 57.2608 103.329 60.0408 100.289Z" fill="white"/>
<path d="M221.321 108.38C220.101 109.12 218.961 109.8 217.871 110.46C215.041 108.54 212.991 108.47 211.621 110.16C210.231 111.88 210.391 115.08 211.941 116.55C213.501 118.04 215.411 117.81 217.851 115.73C218.981 116.39 220.181 117.09 221.361 117.78C219.761 121.64 214.811 122.14 211.651 121.52C207.961 120.8 205.501 117.75 205.321 113.89C205.121 109.54 207.111 106.3 210.701 105.06C214.241 103.85 219.611 104.83 221.321 108.38Z" fill="white"/>
<path d="M222.901 105.61C223.661 105.53 224.291 105.47 225.091 105.39C225.091 103.86 225.091 102.46 225.091 100.91C226.941 100.91 228.611 100.91 230.481 100.91C230.481 102.45 230.481 103.84 230.481 105.43C231.981 105.43 233.301 105.43 234.751 105.43C234.751 106.64 234.751 107.64 234.751 108.88C233.451 108.96 232.081 109.04 230.461 109.14C230.461 111.36 230.371 113.51 230.481 115.64C230.621 118.15 232.391 117.54 234.171 117.12C234.491 118.3 234.801 119.4 235.131 120.61C232.661 122.03 230.221 122.18 227.781 121.09C225.341 120 225.071 117.76 225.091 115.42C225.111 113.41 225.091 111.4 225.091 109.24C224.321 109.09 223.641 108.96 222.881 108.82C222.901 107.79 222.901 106.83 222.901 105.61Z" fill="white"/>
<path d="M47.9808 121.561C46.7508 121.561 45.8608 121.571 44.9708 121.561C44.4608 121.551 43.9508 121.511 43.2408 121.471C43.2408 113.831 43.2408 106.271 43.2408 98.5508C44.7908 98.5508 46.3008 98.5508 47.9708 98.5508C47.9808 106.201 47.9808 113.751 47.9808 121.561Z" fill="white"/>
<path d="M97.6108 44.9006C100.461 45.1506 102.761 45.5906 105.041 45.4906C106.821 45.4106 108.631 44.8206 110.331 44.1906C111.461 43.7706 112.131 43.6606 113.011 44.6906C115.571 47.6906 119.271 48.2906 122.611 45.9006C126.271 43.2806 129.741 44.7906 133.261 45.8306C133.781 45.9806 134.181 46.9306 134.401 47.5906C137.731 57.6306 130.671 69.0806 119.801 71.3306C107.891 73.7906 96.6908 65.2206 96.2308 53.0306C96.1508 50.3506 97.1208 47.6406 97.6108 44.9006Z" fill="white"/>
<path d="M62.024 146.18C61.56 146.18 61.076 146.132 60.572 146.036C60.068 145.948 59.668 145.82 59.372 145.652V144.104C59.7 144.296 60.092 144.456 60.548 144.584C61.012 144.704 61.436 144.764 61.82 144.764C62.1 144.764 62.304 144.744 62.432 144.704C62.56 144.664 62.624 144.584 62.624 144.464C62.624 144.368 62.58 144.292 62.492 144.236C62.412 144.172 62.26 144.108 62.036 144.044C61.82 143.972 61.568 143.896 61.28 143.816C60.792 143.672 60.408 143.524 60.128 143.372C59.848 143.22 59.64 143.028 59.504 142.796C59.368 142.564 59.3 142.272 59.3 141.92C59.3 141.296 59.544 140.832 60.032 140.528C60.528 140.216 61.204 140.06 62.06 140.06C62.476 140.06 62.912 140.104 63.368 140.192C63.832 140.28 64.18 140.396 64.412 140.54V142.064C64.172 141.904 63.852 141.772 63.452 141.668C63.06 141.564 62.692 141.512 62.348 141.512C62.076 141.512 61.864 141.54 61.712 141.596C61.56 141.644 61.484 141.732 61.484 141.86C61.484 141.98 61.56 142.072 61.712 142.136C61.864 142.2 62.136 142.28 62.528 142.376C62.784 142.44 62.892 142.468 62.852 142.46C63.364 142.596 63.76 142.748 64.04 142.916C64.32 143.084 64.516 143.284 64.628 143.516C64.748 143.74 64.808 144.028 64.808 144.38C64.808 144.932 64.568 145.372 64.088 145.7C63.616 146.02 62.928 146.18 62.024 146.18ZM67.6417 146.18C66.9217 146.18 66.3377 146.008 65.8897 145.664C65.4497 145.312 65.2297 144.824 65.2297 144.2C65.2297 143.552 65.4417 143.056 65.8657 142.712C66.2977 142.36 66.9137 142.184 67.7137 142.184C68.0257 142.184 68.3377 142.22 68.6497 142.292C68.9617 142.356 69.2297 142.444 69.4537 142.556V142.436C69.4537 141.82 68.9497 141.512 67.9417 141.512C67.2377 141.512 66.5937 141.648 66.0097 141.92V140.468C66.2657 140.348 66.6017 140.252 67.0177 140.18C67.4337 140.1 67.8657 140.06 68.3137 140.06C69.3857 140.06 70.1937 140.276 70.7377 140.708C71.2897 141.132 71.5657 141.728 71.5657 142.496V146H69.5857V145.508C69.3697 145.716 69.0977 145.88 68.7697 146C68.4417 146.12 68.0657 146.18 67.6417 146.18ZM68.2657 144.884C68.5137 144.884 68.7457 144.836 68.9617 144.74C69.1777 144.636 69.3417 144.504 69.4537 144.344V143.84C69.1097 143.608 68.7177 143.492 68.2777 143.492C67.9977 143.492 67.7817 143.552 67.6297 143.672C67.4777 143.792 67.4017 143.968 67.4017 144.2C67.4017 144.416 67.4737 144.584 67.6177 144.704C67.7697 144.824 67.9857 144.884 68.2657 144.884ZM71.8039 140.24H73.9159L75.2239 143.588L76.5199 140.24H78.6319L76.2199 146H74.2159L71.8039 140.24ZM82.2013 146.18C81.0733 146.18 80.1853 145.916 79.5373 145.388C78.8973 144.86 78.5773 144.112 78.5773 143.144C78.5773 142.192 78.8613 141.44 79.4293 140.888C80.0053 140.336 80.8333 140.06 81.9133 140.06C82.6013 140.06 83.1893 140.192 83.6773 140.456C84.1733 140.712 84.5453 141.068 84.7933 141.524C85.0493 141.972 85.1773 142.48 85.1773 143.048V143.828H80.5813C80.6613 144.148 80.8613 144.38 81.1813 144.524C81.5013 144.668 81.9373 144.74 82.4893 144.74C82.8653 144.74 83.2493 144.708 83.6413 144.644C84.0413 144.58 84.3853 144.492 84.6733 144.38V145.772C84.3773 145.892 84.0053 145.988 83.5573 146.06C83.1173 146.14 82.6653 146.18 82.2013 146.18ZM83.1853 142.508C83.1533 142.196 83.0253 141.952 82.8013 141.776C82.5773 141.6 82.2693 141.512 81.8773 141.512C81.4933 141.512 81.1893 141.604 80.9653 141.788C80.7413 141.964 80.6133 142.204 80.5813 142.508H83.1853ZM94.1708 146.18C93.3468 146.18 92.6668 145.928 92.1308 145.424V146H90.0908V137.132H92.2028V140.708C92.4348 140.508 92.7228 140.352 93.0668 140.24C93.4188 140.12 93.7868 140.06 94.1708 140.06C94.7788 140.06 95.3108 140.188 95.7668 140.444C96.2308 140.7 96.5908 141.064 96.8468 141.536C97.1028 142 97.2308 142.532 97.2308 143.132C97.2308 143.74 97.1028 144.276 96.8468 144.74C96.5908 145.196 96.2308 145.552 95.7668 145.808C95.3028 146.056 94.7708 146.18 94.1708 146.18ZM93.6188 144.548C94.0508 144.548 94.3988 144.424 94.6628 144.176C94.9268 143.92 95.0588 143.572 95.0588 143.132C95.0588 142.692 94.9268 142.344 94.6628 142.088C94.3988 141.832 94.0508 141.704 93.6188 141.704C93.2988 141.704 93.0108 141.788 92.7548 141.956C92.4988 142.116 92.3148 142.336 92.2028 142.616V143.636C92.3148 143.916 92.4988 144.14 92.7548 144.308C93.0108 144.468 93.2988 144.548 93.6188 144.548ZM98.0713 137.132H100.183V146H98.0713V137.132ZM104.571 146.18C103.859 146.18 103.235 146.052 102.699 145.796C102.163 145.532 101.747 145.172 101.451 144.716C101.163 144.252 101.019 143.72 101.019 143.12C101.019 142.52 101.163 141.992 101.451 141.536C101.747 141.072 102.163 140.712 102.699 140.456C103.235 140.192 103.859 140.06 104.571 140.06C105.283 140.06 105.907 140.192 106.443 140.456C106.979 140.712 107.391 141.072 107.679 141.536C107.975 141.992 108.123 142.52 108.123 143.12C108.123 143.72 107.975 144.252 107.679 144.716C107.391 145.172 106.979 145.532 106.443 145.796C105.907 146.052 105.283 146.18 104.571 146.18ZM104.571 144.536C104.995 144.536 105.331 144.412 105.579 144.164C105.835 143.908 105.963 143.56 105.963 143.12C105.963 142.68 105.835 142.336 105.579 142.088C105.331 141.832 104.995 141.704 104.571 141.704C104.147 141.704 103.807 141.832 103.551 142.088C103.303 142.336 103.179 142.68 103.179 143.12C103.179 143.56 103.303 143.908 103.551 144.164C103.807 144.412 104.147 144.536 104.571 144.536ZM111.965 146.18C111.253 146.18 110.629 146.052 110.093 145.796C109.557 145.532 109.141 145.172 108.845 144.716C108.557 144.252 108.413 143.72 108.413 143.12C108.413 142.52 108.557 141.992 108.845 141.536C109.141 141.072 109.557 140.712 110.093 140.456C110.629 140.192 111.253 140.06 111.965 140.06C112.677 140.06 113.301 140.192 113.837 140.456C114.373 140.712 114.785 141.072 115.073 141.536C115.369 141.992 115.517 142.52 115.517 143.12C115.517 143.72 115.369 144.252 115.073 144.716C114.785 145.172 114.373 145.532 113.837 145.796C113.301 146.052 112.677 146.18 111.965 146.18ZM111.965 144.536C112.389 144.536 112.725 144.412 112.973 144.164C113.229 143.908 113.357 143.56 113.357 143.12C113.357 142.68 113.229 142.336 112.973 142.088C112.725 141.832 112.389 141.704 111.965 141.704C111.541 141.704 111.201 141.832 110.945 142.088C110.697 142.336 110.573 142.68 110.573 143.12C110.573 143.56 110.697 143.908 110.945 144.164C111.201 144.412 111.541 144.536 111.965 144.536ZM118.997 146.18C118.397 146.18 117.865 146.056 117.401 145.808C116.937 145.552 116.577 145.196 116.321 144.74C116.065 144.276 115.937 143.74 115.937 143.132C115.937 142.532 116.065 142 116.321 141.536C116.577 141.064 116.933 140.7 117.389 140.444C117.853 140.188 118.389 140.06 118.997 140.06C119.397 140.06 119.765 140.116 120.101 140.228C120.437 140.34 120.725 140.5 120.965 140.708V137.132H123.077V146H121.037V145.424C120.501 145.928 119.821 146.18 118.997 146.18ZM119.549 144.548C119.869 144.548 120.157 144.468 120.413 144.308C120.669 144.14 120.853 143.916 120.965 143.636V142.616C120.853 142.336 120.669 142.116 120.413 141.956C120.157 141.788 119.869 141.704 119.549 141.704C119.117 141.704 118.769 141.832 118.505 142.088C118.241 142.344 118.109 142.692 118.109 143.132C118.109 143.572 118.241 143.92 118.505 144.176C118.769 144.424 119.117 144.548 119.549 144.548ZM130.719 146.18C130.255 146.18 129.771 146.132 129.267 146.036C128.763 145.948 128.363 145.82 128.067 145.652V144.104C128.395 144.296 128.787 144.456 129.243 144.584C129.707 144.704 130.131 144.764 130.515 144.764C130.795 144.764 130.999 144.744 131.127 144.704C131.255 144.664 131.319 144.584 131.319 144.464C131.319 144.368 131.275 144.292 131.187 144.236C131.107 144.172 130.955 144.108 130.731 144.044C130.515 143.972 130.263 143.896 129.975 143.816C129.487 143.672 129.103 143.524 128.823 143.372C128.543 143.22 128.335 143.028 128.199 142.796C128.063 142.564 127.995 142.272 127.995 141.92C127.995 141.296 128.239 140.832 128.727 140.528C129.223 140.216 129.899 140.06 130.755 140.06C131.171 140.06 131.607 140.104 132.063 140.192C132.527 140.28 132.875 140.396 133.107 140.54V142.064C132.867 141.904 132.547 141.772 132.147 141.668C131.755 141.564 131.387 141.512 131.043 141.512C130.771 141.512 130.559 141.54 130.407 141.596C130.255 141.644 130.179 141.732 130.179 141.86C130.179 141.98 130.255 142.072 130.407 142.136C130.559 142.2 130.831 142.28 131.223 142.376C131.479 142.44 131.587 142.468 131.547 142.46C132.059 142.596 132.455 142.748 132.735 142.916C133.015 143.084 133.211 143.284 133.323 143.516C133.443 143.74 133.503 144.028 133.503 144.38C133.503 144.932 133.263 145.372 132.783 145.7C132.311 146.02 131.623 146.18 130.719 146.18ZM136.337 146.18C135.617 146.18 135.033 146.008 134.585 145.664C134.145 145.312 133.925 144.824 133.925 144.2C133.925 143.552 134.137 143.056 134.561 142.712C134.993 142.36 135.609 142.184 136.409 142.184C136.721 142.184 137.033 142.22 137.345 142.292C137.657 142.356 137.925 142.444 138.149 142.556V142.436C138.149 141.82 137.645 141.512 136.637 141.512C135.933 141.512 135.289 141.648 134.705 141.92V140.468C134.961 140.348 135.297 140.252 135.713 140.18C136.129 140.1 136.561 140.06 137.009 140.06C138.081 140.06 138.889 140.276 139.433 140.708C139.985 141.132 140.261 141.728 140.261 142.496V146H138.281V145.508C138.065 145.716 137.793 145.88 137.465 146C137.137 146.12 136.761 146.18 136.337 146.18ZM136.961 144.884C137.209 144.884 137.441 144.836 137.657 144.74C137.873 144.636 138.037 144.504 138.149 144.344V143.84C137.805 143.608 137.413 143.492 136.973 143.492C136.693 143.492 136.477 143.552 136.325 143.672C136.173 143.792 136.097 143.968 136.097 144.2C136.097 144.416 136.169 144.584 136.313 144.704C136.465 144.824 136.681 144.884 136.961 144.884ZM140.499 140.24H142.611L143.919 143.588L145.215 140.24H147.327L144.915 146H142.911L140.499 140.24ZM150.897 146.18C149.769 146.18 148.881 145.916 148.233 145.388C147.593 144.86 147.273 144.112 147.273 143.144C147.273 142.192 147.557 141.44 148.125 140.888C148.701 140.336 149.529 140.06 150.609 140.06C151.297 140.06 151.885 140.192 152.373 140.456C152.869 140.712 153.241 141.068 153.489 141.524C153.745 141.972 153.873 142.48 153.873 143.048V143.828H149.277C149.357 144.148 149.557 144.38 149.877 144.524C150.197 144.668 150.633 144.74 151.185 144.74C151.561 144.74 151.945 144.708 152.337 144.644C152.737 144.58 153.081 144.492 153.369 144.38V145.772C153.073 145.892 152.701 145.988 152.253 146.06C151.813 146.14 151.361 146.18 150.897 146.18ZM151.881 142.508C151.849 142.196 151.721 141.952 151.497 141.776C151.273 141.6 150.965 141.512 150.573 141.512C150.189 141.512 149.885 141.604 149.661 141.788C149.437 141.964 149.309 142.204 149.277 142.508H151.881ZM158.786 137.132H160.898V146H158.786V137.132ZM163.102 139.472C162.782 139.472 162.514 139.368 162.298 139.16C162.082 138.952 161.974 138.688 161.974 138.368C161.974 138.056 162.082 137.796 162.298 137.588C162.514 137.372 162.782 137.264 163.102 137.264C163.414 137.264 163.678 137.372 163.894 137.588C164.118 137.796 164.23 138.056 164.23 138.368C164.23 138.68 164.118 138.944 163.894 139.16C163.678 139.368 163.414 139.472 163.102 139.472ZM162.046 140.24H164.158V146H162.046V140.24ZM165.637 141.704H164.833V140.24H165.637V139.52C165.637 138.744 165.881 138.144 166.369 137.72C166.865 137.288 167.505 137.072 168.289 137.072C168.729 137.072 169.113 137.144 169.441 137.288V138.968C169.217 138.856 168.965 138.8 168.685 138.8C168.365 138.8 168.129 138.872 167.977 139.016C167.825 139.16 167.749 139.388 167.749 139.7V140.24H169.081V141.704H167.749V146H165.637V141.704ZM173.186 146.18C172.058 146.18 171.17 145.916 170.522 145.388C169.882 144.86 169.562 144.112 169.562 143.144C169.562 142.192 169.846 141.44 170.414 140.888C170.99 140.336 171.818 140.06 172.898 140.06C173.586 140.06 174.174 140.192 174.662 140.456C175.158 140.712 175.53 141.068 175.778 141.524C176.034 141.972 176.162 142.48 176.162 143.048V143.828H171.566C171.646 144.148 171.846 144.38 172.166 144.524C172.486 144.668 172.922 144.74 173.474 144.74C173.85 144.74 174.234 144.708 174.626 144.644C175.026 144.58 175.37 144.492 175.658 144.38V145.772C175.362 145.892 174.99 145.988 174.542 146.06C174.102 146.14 173.65 146.18 173.186 146.18ZM174.17 142.508C174.138 142.196 174.01 141.952 173.786 141.776C173.562 141.6 173.254 141.512 172.862 141.512C172.478 141.512 172.174 141.604 171.95 141.788C171.726 141.964 171.598 142.204 171.566 142.508H174.17Z" fill="white"/>
</svg>
