<svg width="682" height="682" viewBox="0 0 682 682" fill="none" xmlns="http://www.w3.org/2000/svg">
<circle cx="341" cy="341" r="341" fill="white" fill-opacity="0.1"/>
<circle cx="341" cy="341" r="305" fill="white" fill-opacity="0.3"/>
<circle cx="341" cy="341" r="265" fill="white"/>
<circle cx="341" cy="341" r="218" fill="#FD063B"/>
<g clip-path="url(#clip0_246_277)">
<path d="M477.94 463.91C489.13 452.02 488.17 441.99 475.22 435.68C472.41 433.83 469.27 432.72 466.07 431.77C454.24 428.29 451.92 424.42 452.69 412.21C453.26 403.15 454.36 393.98 452 384.96C449.21 371.05 443.6 358.34 435.25 346.91C432.97 343.79 433.13 341.55 435.49 338.56C441.22 331.31 445.38 323.21 447.18 314.03C448.08 311 448.98 307.97 449.87 304.94C451.23 303.16 451.81 301.1 451.92 298.91C452.84 280.09 451.35 261.68 440.6 245.45C432.65 233.44 422.08 224.38 407.99 220.07C405.1 219.32 402.21 218.56 399.31 217.83C382.59 213.6 366.14 213.73 350.11 220.83C347.36 222.05 344.64 223.31 343.11 226.14C341.43 227.45 339.75 228.76 338.06 230.07C333.54 233.28 330 237.4 326.99 242C325.84 242.2 324.95 241.6 324.03 241.07C321.5 237.44 318.36 234.55 314.15 232.95C299.95 222.23 284.07 216.76 266.17 217.75C246.93 218.82 230.39 225.94 216.98 239.96C209.86 246.32 204.16 253.69 201 262.83C197.81 268.34 197.12 274.37 197.12 280.61C197.16 335.21 197.35 389.81 196.99 444.4C196.93 453.95 201.09 459.28 208.96 462.98C210.94 464.75 213.39 464.85 215.87 465.01C221.8 465.38 225.91 461.53 230.53 458.86C236.46 456.88 237.09 452.12 237.09 446.82C237.05 393.6 237.07 340.38 237.05 287.16C237.05 283.33 237.1 279.51 237.99 275.76C243.06 266.22 250.71 259.29 259.96 253.98C272.43 249.57 282.82 253.51 292.09 261.96C293.84 263.95 295.49 266.05 297.37 267.91C303.46 273.91 306.31 280.68 306.25 289.65C305.89 342.38 306.09 395.11 306.13 447.85C306.14 457.94 312.58 464.74 322.74 465.01C328.52 465.17 334.5 465.06 338.09 459.14C338.43 458.81 338.77 458.49 339.11 458.16C344.39 457.07 343.83 452.89 343.84 449.09C343.88 394.02 343.88 338.96 343.92 283.89C343.92 281.08 343.53 278.19 344.9 275.55C350.27 265.22 357.38 256.72 368.95 252.97C376.65 252.23 384.36 251.83 392.06 252.94C393 253.61 393.85 254.47 394.88 254.92C415.14 263.72 421.55 289.56 409.78 308.89C402.74 316.96 394.17 322.23 383.31 323.32C379.52 323.7 377.83 325.91 377.86 329.72C377.94 337.54 377.93 345.37 377.85 353.19C377.81 357.46 379.84 359.3 384.02 358.97C386.95 360.06 389.87 361.14 392.8 362.23C395 363.42 397.26 364.5 399.38 365.8C410.28 372.5 419.02 381.04 417.63 394.95C416.58 405.48 417.72 415.64 420.23 425.62C423.94 440.39 430.82 453.31 445.02 460.89C445.43 461.2 445.85 461.51 446.28 461.77C453.36 466.43 461.48 466.66 469.63 466.39C472.49 466.3 475.75 466.6 477.94 463.91Z" fill="#FDFDFD"/>
</g>
<defs>
<clipPath id="clip0_246_277">
<rect width="288.69" height="251.47" fill="white" transform="translate(197 215)"/>
</clipPath>
</defs>
</svg>
