<svg width="119" height="82" viewBox="0 0 119 82" fill="none" xmlns="http://www.w3.org/2000/svg">
<g clip-path="url(#clip0_313_1987)">
<path d="M84.7504 12.82V5.76276C86.0647 5.48127 87.0519 4.31365 87.0519 2.91409C87.0519 1.3044 85.7475 0 84.1378 0C82.7383 0 81.5707 0.98524 81.2892 2.30154H74.8563C74.5748 0.987223 73.4072 0 72.0077 0C70.6081 0 69.4405 0.98524 69.159 2.30154H62.7262C62.4447 0.987223 61.2771 0 59.8775 0C58.478 0 57.3103 0.98524 57.0288 2.30154H50.596C50.3145 0.987223 49.1469 0 47.7474 0C46.3478 0 45.1802 0.98524 44.8987 2.30154H38.4659C38.1844 0.987223 37.0168 0 35.6172 0C34.0075 0 32.7031 1.3044 32.7031 2.91409C32.7031 4.31365 33.6884 5.48127 35.0047 5.76276V12.82C33.6903 13.1015 32.7031 14.2691 32.7031 15.6687C32.7031 17.2784 34.0075 18.5828 35.6172 18.5828C37.0207 18.5828 38.1943 17.5896 38.4699 16.2654H50.6654C50.8993 17.3854 51.7775 18.2696 52.8936 18.5134V24.0561C51.5833 24.3416 50.604 25.5072 50.604 26.9008C50.604 28.2944 51.5852 29.4601 52.8936 29.7455V36.5709C51.5833 36.8563 50.604 38.022 50.604 39.4156C50.604 40.8092 51.5852 41.9748 52.8936 42.2603V48.586C51.5833 48.8715 50.604 50.0371 50.604 51.4307C50.604 53.0404 51.9084 54.3448 53.5181 54.3448C54.9176 54.3448 56.0852 53.3596 56.3667 52.0433H63.3883C63.6698 53.3576 64.8374 54.3448 66.237 54.3448C67.8467 54.3448 69.1511 53.0404 69.1511 51.4307C69.1511 50.0352 68.1698 48.8715 66.8614 48.586V42.2603C68.1718 41.9748 69.1511 40.8092 69.1511 39.4156C69.1511 38.022 68.1698 36.8563 66.8614 36.5709V29.7455C68.1718 29.4601 69.1511 28.2944 69.1511 26.9008C69.1511 25.5072 68.1698 24.3416 66.8614 24.0561V18.5134C67.9795 18.2696 68.8557 17.3854 69.0896 16.2654H81.2852C81.5607 17.5876 82.7323 18.5828 84.1378 18.5828C85.7475 18.5828 87.0519 17.2784 87.0519 15.6687C87.0519 14.2691 86.0667 13.1015 84.7504 12.82ZM81.2931 15.0403H69.0817C69.042 14.8559 68.9846 14.6795 68.9112 14.511L82.1773 5.06497C82.5519 5.40594 83.0118 5.65373 83.5273 5.76276V12.82C82.4151 13.0579 81.5409 13.9302 81.2971 15.0403H81.2931ZM65.6343 18.5193V24.0502C65.22 24.1374 64.8394 24.3138 64.5103 24.5577L56.0614 17.0901C56.2974 16.6698 56.4341 16.1841 56.4341 15.6687C56.4341 14.059 55.1297 12.7546 53.52 12.7546C53.3079 12.7546 53.1018 12.7784 52.9015 12.822L49.48 5.25528C50.039 4.84096 50.4454 4.23237 50.596 3.52863H57.0288C57.3103 4.84294 58.478 5.83017 59.8775 5.83017C60.1273 5.83017 60.3692 5.79448 60.6011 5.73501L64.4271 13.387C63.755 13.9202 63.3209 14.7429 63.3209 15.6687C63.3209 17.0722 64.3121 18.2418 65.6324 18.5193H65.6343ZM63.3883 50.8202H56.3667C56.2974 50.497 56.1725 50.1937 56.0059 49.9202L64.5876 41.8182C64.8989 42.0323 65.2537 42.1869 65.6343 42.2682V48.5821C64.5123 48.818 63.6282 49.7001 63.3883 50.8202ZM63.7471 40.9261L55.1634 49.0301C54.8542 48.818 54.5013 48.6653 54.1227 48.5841V42.2702C55.4429 41.9927 56.4341 40.8211 56.4341 39.4195C56.4341 38.8446 56.2656 38.3114 55.9782 37.8594L64.6372 29.3372C64.9365 29.5334 65.2716 29.6781 65.6343 29.7535V36.5669C64.3141 36.8444 63.3229 38.016 63.3229 39.4175C63.3229 39.9706 63.4795 40.4841 63.7471 40.9261ZM54.1227 24.0522V18.5213C54.539 18.4341 54.9196 18.2557 55.2507 18.0119L63.6976 25.4775C63.4597 25.8997 63.3229 26.3854 63.3229 26.9028C63.3229 27.4777 63.4914 28.011 63.7788 28.4629L55.1198 36.9852C54.8205 36.7889 54.4855 36.6442 54.1227 36.5689V29.7555C55.4429 29.4779 56.4341 28.3063 56.4341 26.9048C56.4341 25.5033 55.4429 24.3317 54.1227 24.0541V24.0522ZM38.4659 3.52665H44.8987C44.978 3.90131 45.1306 4.24823 45.3388 4.55352L37.1258 13.1788C36.8522 13.0123 36.5529 12.8894 36.2298 12.82V5.76276C37.3458 5.5229 38.226 4.64471 38.4639 3.52863L38.4659 3.52665ZM38.0199 14.0194L46.2289 5.39801C46.6709 5.66959 47.1903 5.82818 47.7474 5.82818C47.9575 5.82818 48.1637 5.80439 48.3619 5.76276L51.7835 13.3315C51.2304 13.7438 50.826 14.3445 50.6734 15.0403H38.4619C38.3806 14.6696 38.228 14.3246 38.0199 14.0194ZM61.6993 5.18589C62.2128 4.77356 62.5835 4.19272 62.7262 3.52665H69.159C69.4405 4.84096 70.6081 5.82818 72.0077 5.82818C73.4072 5.82818 74.5748 4.84294 74.8563 3.52665H81.2892C81.3288 3.71299 81.3863 3.89339 81.4616 4.06585L68.1936 13.5119C67.6762 13.042 66.9903 12.7526 66.237 12.7526C65.9932 12.7526 65.7553 12.7863 65.5293 12.8438L61.7013 5.18589H61.6993ZM84.1358 1.22709C85.0656 1.22709 85.8228 1.98436 85.8228 2.91409C85.8228 3.84383 85.0656 4.60109 84.1358 4.60109C83.2061 4.60109 82.4488 3.84383 82.4488 2.91409C82.4488 1.98436 83.2061 1.22709 84.1358 1.22709ZM47.7474 1.22709C48.6771 1.22709 49.4344 1.98436 49.4344 2.91409C49.4344 3.84383 48.6771 4.60109 47.7474 4.60109C46.8176 4.60109 46.0604 3.84383 46.0604 2.91409C46.0604 1.98436 46.8176 1.22709 47.7474 1.22709ZM51.8311 26.9028C51.8311 25.9731 52.5883 25.2158 53.5181 25.2158C54.4478 25.2158 55.2051 25.9731 55.2051 26.9028C55.2051 27.8325 54.4478 28.5898 53.5181 28.5898C52.5883 28.5898 51.8311 27.8325 51.8311 26.9028ZM53.5181 53.1217C52.5883 53.1217 51.8311 52.3644 51.8311 51.4347C51.8311 50.505 52.5883 49.7477 53.5181 49.7477C54.4478 49.7477 55.2051 50.505 55.2051 51.4347C55.2051 52.3644 54.4478 53.1217 53.5181 53.1217ZM67.924 39.4175C67.924 40.3473 67.1667 41.1046 66.237 41.1046C65.3072 41.1046 64.55 40.3473 64.55 39.4175C64.55 38.4878 65.3072 37.7305 66.237 37.7305C67.1667 37.7305 67.924 38.4878 67.924 39.4175ZM66.237 17.3557C65.3072 17.3557 64.55 16.5984 64.55 15.6687C64.55 14.739 65.3072 13.9817 66.237 13.9817C67.1667 13.9817 67.924 14.739 67.924 15.6687C67.924 16.5984 67.1667 17.3557 66.237 17.3557Z" fill="#F6F7FB"/>
<path d="M0 67.274H6.90263V81.3052H9.72355V64.4531H0V67.274Z" fill="#F6F7FB"/>
<path d="M23.0587 64.453H11.8306V67.2739H23.0587V64.453Z" fill="#F6F7FB"/>
<path d="M23.0587 78.4841H11.8306V81.305H23.0587V78.4841Z" fill="#F6F7FB"/>
<path d="M23.0587 71.4883H11.8306V74.2914H23.0587V71.4883Z" fill="#F6F7FB"/>
<path d="M29.6224 68.9114C30.112 68.4098 30.7127 68.0015 31.4283 67.6882C32.1182 67.4127 32.8457 67.2739 33.6109 67.2739C35.1413 67.2739 36.4636 67.8131 37.5797 68.8915L39.5739 66.9349C38.7968 66.1578 37.9008 65.5493 36.8838 65.1112C35.8926 64.673 34.8023 64.453 33.6109 64.453C32.4195 64.453 31.3609 64.679 30.3579 65.131C29.3548 65.5453 28.4508 66.146 27.6499 66.9369C26.8728 67.714 26.2702 68.5981 25.844 69.5893C25.392 70.6301 25.166 71.7204 25.166 72.8622V72.8821C25.166 74.0358 25.392 75.1261 25.844 76.155C26.2583 77.1204 26.859 78.0045 27.6499 78.8074C28.4528 79.5983 29.3548 80.199 30.3579 80.6133C31.3609 81.0653 32.4453 81.2913 33.6109 81.2913C34.7766 81.2913 35.8926 81.0713 36.8838 80.6331C37.8988 80.195 38.7948 79.5865 39.5739 78.8094L37.5797 76.8528C36.4636 77.9312 35.1413 78.4704 33.6109 78.4704C32.8338 78.4704 32.1063 78.3257 31.4283 78.0382C30.8019 77.8003 30.1993 77.392 29.6224 76.8151C29.109 76.3017 28.7125 75.7129 28.4369 75.0468C28.1356 74.3569 27.985 73.6294 27.985 72.8642C27.985 72.099 28.1356 71.3774 28.4369 70.7014C28.7125 70.0492 29.107 69.4545 29.6224 68.9153V68.9114Z" fill="#F6F7FB"/>
<path d="M57.8179 67.2739H64.7205V81.3052H67.5414V64.453H57.8179V67.2739Z" fill="#F6F7FB"/>
<path d="M72.4496 69.6071H69.6465V81.3051H72.4496V69.6071Z" fill="#F6F7FB"/>
<path d="M81.8742 73.237C82.5264 72.3092 82.8515 71.2507 82.8515 70.0592C82.8515 68.5427 82.3064 67.2185 81.2161 66.0905C80.1258 65.0002 78.8016 64.4551 77.2474 64.4551H69.6489V67.276H77.2474C77.9987 67.276 78.6509 67.5515 79.204 68.1046C79.769 68.6319 80.0504 69.2841 80.0504 70.0612C80.0504 70.8383 79.769 71.5282 79.204 72.0555C78.6529 72.6066 78.0007 72.8821 77.2474 72.8821L74.7456 72.8623L79.6361 81.3072H82.8515L79.4101 75.2689C80.4013 74.8546 81.222 74.1786 81.8742 73.237Z" fill="#F6F7FB"/>
<path d="M93.3836 64.453C91.0503 64.453 89.0699 65.2816 87.4404 66.9349C85.7851 68.616 84.9585 70.5964 84.9585 72.8781C84.9585 75.1598 85.7851 77.1422 87.4404 78.8213C89.1215 80.4765 91.1019 81.3032 93.3836 81.3032C95.6653 81.3032 97.6457 80.4746 99.3267 78.8213C100.994 77.1917 101.829 75.2094 101.829 72.8781C101.829 70.5468 100.994 68.6021 99.3267 66.9349C97.6457 65.2797 95.6653 64.453 93.3836 64.453ZM97.3523 76.8666C96.262 77.945 94.9378 78.4843 93.3836 78.4843C91.8294 78.4843 90.4873 77.945 89.397 76.8666C88.3186 75.7763 87.7794 74.4462 87.7794 72.8801C87.7794 71.314 88.3186 70.0017 89.397 68.9114C90.4992 67.8211 91.8294 67.2759 93.3836 67.2759C94.9378 67.2759 96.2362 67.8211 97.3523 68.9114C98.4426 70.0274 98.9878 71.3497 98.9878 72.8801C98.9878 74.4105 98.4426 75.7644 97.3523 76.8666Z" fill="#F6F7FB"/>
<path d="M110.198 70.0017L105.873 64.453H102.261L108.392 72.3349L110.198 70.0017Z" fill="#F6F7FB"/>
<path d="M115.446 64.453L102.261 81.3052H105.873L119 64.453H115.446Z" fill="#F6F7FB"/>
<path d="M111.082 75.7189L115.465 81.3429L119 81.3053L112.85 73.4055L111.082 75.7189Z" fill="#F6F7FB"/>
<path d="M52.9079 71.4686H44.4828V64.453H41.6797V81.3052H44.4828V74.2895H52.9079V79.5052V81.3052H55.7109V79.5052V71.4686V64.453H52.9079V71.4686Z" fill="#F6F7FB"/>
</g>
<defs>
<clipPath id="clip0_313_1987">
<rect width="119" height="81.3428" fill="white"/>
</clipPath>
</defs>
</svg>
