<svg width="103" height="103" viewBox="0 0 103 103" fill="none" xmlns="http://www.w3.org/2000/svg">
<g clip-path="url(#clip0_241_276)">
<path d="M14.2984 33.3633C12.5237 33.3633 11.0179 33.9822 9.78016 35.2199C8.5424 36.4577 7.92334 37.9429 7.92334 39.6765V66.2929C7.92334 68.0698 8.54222 69.5742 9.78016 70.8122C11.0179 72.0499 12.5237 72.669 14.2984 72.669C16.0717 72.669 17.5684 72.0501 18.7869 70.8122C20.0031 69.5744 20.6128 68.0698 20.6128 66.2929V39.6765C20.6128 37.9428 19.994 36.4577 18.756 35.2199C17.5181 33.9822 16.0319 33.3633 14.2984 33.3633Z" fill="white"/>
<path d="M65.5512 9.46974L69.9461 1.36231C70.2346 0.825563 70.1319 0.413972 69.6373 0.124554C69.1004 -0.125009 68.6878 0.00144857 68.3995 0.494986L63.9432 8.66722C60.0219 6.93351 55.8745 6.06507 51.501 6.06507C47.1266 6.06507 42.9788 6.9337 39.059 8.66722L34.6025 0.494986C34.3128 0.00144857 33.9003 -0.123891 33.3647 0.124554C32.8689 0.415275 32.7663 0.825563 33.0559 1.36231L37.451 9.46974C32.9944 11.7424 29.4451 14.9076 26.8042 18.9721C24.1633 23.0389 22.8423 27.4829 22.8423 32.3121H80.0975C80.0975 27.484 78.7763 23.0398 76.1356 18.9721C73.4945 14.9076 69.9656 11.7424 65.5512 9.46974ZM40.1418 21.2621C39.6665 21.7385 39.0989 21.9756 38.439 21.9756C37.7779 21.9756 37.2217 21.7385 36.7681 21.2621C36.3144 20.7879 36.0875 20.2225 36.0875 19.5604C36.0875 18.9006 36.3144 18.334 36.7681 17.8588C37.2217 17.3846 37.7792 17.1475 38.439 17.1475C39.0989 17.1475 39.6665 17.3846 40.1418 17.8588C40.616 18.3352 40.8542 18.9006 40.8542 19.5604C40.8529 20.2214 40.6149 20.7879 40.1418 21.2621ZM66.2315 21.2621C65.7769 21.7385 65.2195 21.9756 64.5607 21.9756C63.8994 21.9756 63.3319 21.7385 62.8576 21.2621C62.3825 20.7879 62.1454 20.2225 62.1454 19.5604C62.1454 18.9006 62.3825 18.334 62.8576 17.8588C63.3319 17.3846 63.8994 17.1475 64.5607 17.1475C65.2206 17.1475 65.7767 17.3846 66.2315 17.8588C66.6856 18.3352 66.912 18.9006 66.912 19.5604C66.912 20.2214 66.6854 20.7879 66.2315 21.2621Z" fill="white"/>
<path d="M23.0884 75.7634C23.0884 77.6635 23.7482 79.2718 25.0681 80.5917C26.3891 81.9116 27.9975 82.5715 29.8962 82.5715H34.477L34.5398 96.6241C34.5398 98.3986 35.1586 99.9054 36.3964 101.143C37.6341 102.381 39.1205 103 40.8529 103C42.6265 103 44.1332 102.381 45.3711 101.143C46.6091 99.9054 47.228 98.3987 47.228 96.6241V82.5728H55.7697V96.6241C55.7697 98.3986 56.3884 99.9054 57.6263 101.143C58.8643 102.381 60.3697 103 62.1445 103C63.9181 103 65.4248 102.381 66.6627 101.143C67.9007 99.9054 68.5194 98.3987 68.5194 96.6241V82.5728H73.162C75.0186 82.5728 76.6063 81.9127 77.9286 80.5928C79.2483 79.273 79.9085 77.6646 79.9085 75.7647V34.5383H23.0884V75.7634Z" fill="white"/>
<path d="M88.7016 33.3633C86.9678 33.3633 85.4828 33.973 84.2448 35.1892C83.0071 36.4076 82.3882 37.9042 82.3882 39.6765V66.2929C82.3882 68.0698 83.0069 69.5742 84.2448 70.8122C85.4828 72.0501 86.969 72.669 88.7016 72.669C90.4751 72.669 91.9818 72.0501 93.2198 70.8122C94.4577 69.5742 95.0764 68.0698 95.0764 66.2929V39.6765C95.0764 37.904 94.4577 36.4076 93.2198 35.1892C91.9818 33.973 90.4751 33.3633 88.7016 33.3633Z" fill="white"/>
</g>
<defs>
<clipPath id="clip0_241_276">
<rect width="103" height="103" fill="white"/>
</clipPath>
</defs>
</svg>
