<svg width="103" height="103" viewBox="0 0 103 103" fill="none" xmlns="http://www.w3.org/2000/svg">
<path d="M45.4747 17.3708H45.4678C44.3796 17.38 43.501 18.2662 43.4995 19.3559C43.4972 20.4448 44.3728 21.3326 45.4625 21.3463H45.4693C46.5575 21.3364 47.4361 20.4509 47.4384 19.3612C47.4399 18.2716 46.5643 17.3838 45.4747 17.3708Z" fill="white"/>
<path d="M3.12109 85.3023C3.12567 89.7441 6.72619 93.3438 11.168 93.3492H91.6367C96.0785 93.3438 99.679 89.7441 99.6836 85.3023V32.8772H3.12109V85.3023ZM61.1973 52.6835C60.4787 52.0723 60.3934 50.9949 61.0045 50.2763C61.6149 49.5592 62.6924 49.4724 63.4109 50.0843L74.4548 59.489C74.8358 59.8144 75.0553 60.2892 75.0553 60.7898C75.0553 61.2897 74.8358 61.7652 74.4548 62.089L63.4109 71.4938C62.6924 72.1057 61.6149 72.0188 61.0045 71.3018C60.3934 70.584 60.4787 69.5072 61.1973 68.8953L70.7148 60.7898L61.1973 52.6835ZM45.8198 76.8965L52.7039 44.2137C52.8974 43.2909 53.8035 42.7003 54.7255 42.8946C55.6483 43.089 56.2381 43.995 56.0438 44.917L49.1605 77.6006C48.9654 78.5234 48.0609 79.1132 47.1381 78.9189C46.2161 78.7246 45.6255 77.8193 45.8198 76.8965ZM28.3499 59.489L39.3938 50.0843C40.1123 49.4724 41.1898 49.5592 41.8002 50.2763C42.4113 50.9949 42.326 52.0723 41.6074 52.6835L32.0898 60.7898L41.6089 68.8953C42.326 69.5072 42.4121 70.584 41.801 71.3018C41.1906 72.0188 40.1123 72.1057 39.3945 71.4938L28.3506 62.089C27.9696 61.7652 27.7502 61.2897 27.7502 60.7898C27.7502 60.2892 27.9696 59.8144 28.3506 59.489H28.3499Z" fill="white"/>
<path d="M28.878 17.3184H28.8711C27.7944 17.3458 26.9348 18.2259 26.9341 19.3034C26.9326 20.3801 27.7883 21.2625 28.865 21.293H28.8711C29.9479 21.2656 30.8066 20.3855 30.8089 19.3095C30.8097 18.232 29.9532 17.3496 28.8772 17.3184H28.878Z" fill="white"/>
<path d="M91.6367 8.95752H11.168C6.72619 8.96209 3.12567 12.5626 3.12109 17.0044V29.4633H99.6836V17.0044C99.679 12.5626 96.0785 8.96209 91.6367 8.95752ZM12.2744 24.6565H12.2576C9.27131 24.652 6.8542 22.228 6.85649 19.2417C6.85878 16.2553 9.2797 13.8359 12.266 13.8359C15.2531 13.8359 17.6748 16.2553 17.6763 19.2417C17.6794 22.228 15.2615 24.652 12.2744 24.6565ZM34.273 19.3232C34.2608 22.2989 31.846 24.7053 28.8711 24.7084H28.8543C25.9061 24.6558 23.5446 22.2478 23.5499 19.2988C23.5538 16.3506 25.9221 13.9502 28.8703 13.9068H28.8886C31.8704 13.919 34.2791 16.343 34.273 19.3247V19.3232ZM50.8697 19.3758C50.8605 22.3515 48.4457 24.7594 45.4693 24.7602H45.4525C42.483 24.7366 40.0902 22.3202 40.094 19.3499C40.0986 16.3803 42.5005 13.9716 45.4701 13.9571H45.4861C48.4686 13.9693 50.8773 16.3933 50.8705 19.3758H50.8697Z" fill="white"/>
<path d="M12.2812 17.2673H12.2743C11.1945 17.2887 10.3297 18.1703 10.3281 19.2509C10.3258 20.3322 11.1877 21.2161 12.269 21.242H12.2743C13.3556 21.2191 14.2197 20.3383 14.222 19.257C14.2235 18.1764 13.3617 17.2925 12.2812 17.2673Z" fill="white"/>
</svg>
