<svg width="166" height="63" viewBox="0 0 166 63" fill="none" xmlns="http://www.w3.org/2000/svg">
<path d="M17.5012 39.4998C16.4225 39.9337 15.2697 40.148 14.1089 40.1305C9.46455 40.1305 6.23372 36.2138 6.23372 31.5133V31.4337C6.23372 26.7394 9.52917 22.8942 14.1089 22.8942C15.2742 22.8895 16.4283 23.1242 17.5012 23.584V17.6182C16.394 17.4209 15.2715 17.3246 14.1472 17.3304C5.81371 17.3304 0.000244141 23.7167 0.000244141 31.5133V31.5909C0.000244141 39.4651 5.93083 45.6943 13.915 45.6943C15.1191 45.7033 16.3209 45.5864 17.5012 45.3452V39.4998Z" fill="white"/>
<path d="M26.9191 33.6033V42.1184H22.301V20.9083H26.9191V29.3009V33.6033Z" fill="white"/>
<path d="M35.4321 29.3009V20.9083H40.0482V42.1184H35.4321V33.6033V29.3009Z" fill="white"/>
<path d="M6.56682 34.0544C6.34821 33.2276 6.23822 32.3753 6.2397 31.5195V31.4399C6.21525 29.3188 6.93575 27.2577 8.2731 25.623C8.22039 25.4686 8.15904 25.3173 8.08935 25.1699C5.10487 24.5576 2.51213 25.7006 0.525173 27.564C0.175876 28.8528 -0.000701848 30.1832 0.000165433 31.5195V31.597C-0.0108522 33.9136 0.528604 36.1989 1.57317 38.2609C3.88725 36.8771 5.48248 35.4423 6.56682 34.0544Z" fill="white"/>
<path d="M0.000165433 31.5133V31.5909C-0.0108522 33.9074 0.528604 36.1928 1.57317 38.2548C3.99629 31.3358 6.43355 27.6415 8.19637 25.7087C8.6942 25.0935 9.28262 24.5594 9.94102 24.1249C10.2104 23.9209 10.5059 23.7547 10.8194 23.631V23.631C11.8477 23.1403 12.9717 22.8885 14.1088 22.8942C15.2741 22.8895 16.4283 23.1242 17.5012 23.584V17.6182C16.3939 17.4209 15.2714 17.3246 14.1472 17.3304C5.81364 17.3304 0.000165433 23.7167 0.000165433 31.5133Z" fill="white"/>
<path d="M44.8501 23.5248C45.9287 23.0907 47.0816 22.8764 48.2425 22.8942C52.8868 22.8942 56.1176 26.8109 56.1176 31.5133V31.5909C56.1176 36.2852 52.8222 40.1305 48.2425 40.1305C47.0771 40.1356 45.9229 39.9008 44.8501 39.4406V45.4065C45.9566 45.6038 47.0785 45.7001 48.2021 45.6943C56.5356 45.6943 62.3491 39.3079 62.3491 31.5133V31.4337C62.3491 23.5595 56.4205 17.3304 48.4343 17.3304C47.2308 17.3212 46.0297 17.4382 44.8501 17.6794V23.5248Z" fill="white"/>
<path d="M55.7825 28.9763C56.0011 29.8039 56.111 30.6568 56.1096 31.5133V31.5909C56.1351 33.7121 55.4145 35.7736 54.0762 37.4077C54.1289 37.5622 54.1902 37.7135 54.2599 37.8608C57.2464 38.4732 59.8371 37.3302 61.8241 35.4667C62.1733 34.1786 62.3499 32.8489 62.3491 31.5133V31.4337C62.3599 29.1174 61.8212 26.8323 60.7781 24.7698C58.462 26.1475 56.8688 27.5823 55.7825 28.9763Z" fill="white"/>
<path d="M62.3491 31.5133V31.4337C62.3598 29.1174 61.8211 26.8323 60.7781 24.7698C58.355 31.6888 55.9177 35.3831 54.1529 37.3159C53.6553 37.9306 53.0676 38.4647 52.4102 38.8997C52.1401 39.1036 51.8439 39.2697 51.5298 39.3936C50.5023 39.8844 49.379 40.1362 48.2425 40.1304C47.0771 40.1355 45.9229 39.9008 44.8501 39.4406V45.4064C45.9566 45.6038 47.0785 45.7001 48.2021 45.6942C56.5356 45.6881 62.3491 39.3079 62.3491 31.5133Z" fill="white"/>
<path d="M23.2701 17.6875C22.8406 16.5973 22.6286 15.432 22.6461 14.2587C22.6461 9.56434 26.5211 6.29873 31.1715 6.29873H31.2502C35.8946 6.29873 39.6989 9.62761 39.6989 14.2587C39.7042 15.4368 39.4713 16.6037 39.0143 17.6875H44.9187C45.1139 16.5691 45.2092 15.4352 45.2034 14.2995C45.2034 5.87625 38.8851 0.000183105 31.1715 0.000183105H31.0948C23.3044 0.000183105 17.1416 5.99258 17.1416 14.0627C17.1324 15.2798 17.2482 16.4946 17.4869 17.6875H23.2701Z" fill="white"/>
<path d="M28.6637 6.63548C29.482 6.41619 30.3251 6.30572 31.1717 6.30688H31.2504C33.349 6.28145 35.3884 7.00979 37.0053 8.36217C37.1581 8.30889 37.3078 8.24689 37.4536 8.17645C38.0594 5.1578 36.9286 2.53918 35.083 0.530833C33.8088 0.176642 32.4931 -0.00186249 31.1717 0.000169922H31.0949C28.8026 -0.0110495 26.5411 0.533474 24.5 1.58807C25.859 3.92911 27.2846 5.53946 28.6637 6.63548Z" fill="white"/>
<path d="M31.1717 0.000169922H31.0949C28.8026 -0.0110495 26.5411 0.533474 24.5 1.58807C31.3453 4.03728 35.0002 6.50078 36.9145 8.28462C37.5226 8.78751 38.051 9.38152 38.4814 10.046C38.6826 10.3194 38.8469 10.6187 38.9701 10.9359V10.9359C39.4543 11.9742 39.7034 13.1087 39.699 14.2566C39.7044 15.4348 39.4714 16.6016 39.0145 17.6855H44.9188C45.1141 16.5671 45.2094 15.4331 45.2035 14.2974C45.2035 5.87623 38.8853 0.000169922 31.1717 0.000169922Z" fill="white"/>
<path d="M39.0749 45.3105C39.5032 46.4011 39.7152 47.5661 39.6988 48.7394C39.6988 53.4337 35.8239 56.6993 31.1715 56.6993H31.0947C26.4504 56.6993 22.6461 53.3684 22.6461 48.7394C22.6415 47.5615 22.8737 46.3949 23.3286 45.3105H17.4263C17.2311 46.4296 17.1358 47.5642 17.1416 48.7006C17.1416 57.1238 23.4599 62.9999 31.1715 62.9999H31.2502C39.0406 62.9999 45.2034 57.0054 45.2034 48.9353C45.2123 47.7182 45.0966 46.5035 44.8581 45.3105H39.0749Z" fill="white"/>
<path d="M31.1715 62.9999H31.2502C33.5425 63.0083 35.8033 62.4609 37.8431 61.4038C30.9978 58.9546 27.343 56.4911 25.4307 54.7093C24.8225 54.2057 24.2941 53.611 23.8638 52.9459C23.662 52.6733 23.497 52.3747 23.3731 52.0581C22.8891 51.0183 22.6408 49.8824 22.6461 48.7333C22.6415 47.5554 22.8737 46.3888 23.3286 45.3044H17.4263C17.2311 46.4235 17.1358 47.5581 17.1416 48.6945C17.1416 57.1177 23.4599 62.9999 31.1715 62.9999Z" fill="white"/>
<path d="M22.301 35.2218H26.9191V31.1479L22.301 35.2218Z" fill="white"/>
<path d="M40.0482 35.2218H35.4321V31.6276L40.0482 35.2218Z" fill="white"/>
<path d="M22.303 30.3316C22.303 30.3316 26.919 27.417 31.1756 27.417C35.4322 27.417 40.0483 30.3316 40.0483 30.3316V35.23C40.0483 35.23 35.9734 31.6929 31.1756 31.6929C26.3779 31.6929 22.303 35.23 22.303 35.23V30.3316Z" fill="white"/>
<path d="M69.7073 22.8166H73.342V29.4356H80.056V22.8166H83.6907V39.5528H80.056V32.8298H73.348V39.5447H69.7133L69.7073 22.8166Z" fill="white"/>
<path d="M86.6792 33.2114V33.1644C86.6792 29.4906 89.6112 26.4965 93.5588 26.4965C97.5065 26.4965 100.392 29.4355 100.392 33.1155V33.1644C100.392 36.8382 97.4601 39.8304 93.5124 39.8304C89.5647 39.8304 86.6792 36.8913 86.6792 33.2114ZM96.8462 33.2114V33.1644C96.8462 31.2765 95.4973 29.6274 93.5124 29.6274C91.4548 29.6274 90.2271 31.2275 90.2271 33.1155V33.1644C90.2271 35.0524 91.5739 36.6995 93.5588 36.6995C95.6165 36.7076 96.8462 35.0993 96.8462 33.2114V33.2114Z" fill="white"/>
<path d="M101.998 37.8466L103.534 35.4586C104.905 36.4607 106.349 36.9873 107.53 36.9873C108.57 36.9873 109.043 36.6056 109.043 36.0321V35.9831C109.043 35.1953 107.813 34.932 106.418 34.5014C104.645 33.9768 102.634 33.14 102.634 30.6541V30.6071C102.634 28.0028 104.715 26.5455 107.268 26.5455C108.952 26.57 110.594 27.0844 111.997 28.0273L110.626 30.5357C109.372 29.7948 108.12 29.3417 107.193 29.3417C106.319 29.3417 105.868 29.7234 105.868 30.2255V30.2724C105.868 30.9888 107.08 31.3235 108.445 31.8011C110.22 32.3991 112.282 33.2604 112.282 35.6015V35.6484C112.282 38.4915 110.178 39.7835 107.435 39.7835C105.46 39.7668 103.547 39.0853 101.998 37.8466V37.8466Z" fill="white"/>
<path d="M114.858 26.7353H118.452V28.5722C119.327 27.3782 120.532 26.4924 122.4 26.4924C125.354 26.4924 128.167 28.8355 128.167 33.1114V33.1604C128.167 37.4465 125.401 39.7794 122.4 39.7794C120.484 39.7794 119.303 38.8936 118.452 37.8669V43.3634H114.858V26.7353ZM124.575 33.1645V33.1155C124.575 30.9888 123.161 29.5805 121.477 29.5805C119.793 29.5805 118.404 30.9888 118.404 33.1155V33.1645C118.404 35.2912 119.799 36.6995 121.477 36.6995C123.155 36.6995 124.575 35.3137 124.575 33.1645Z" fill="white"/>
<path d="M130.885 22.1002H134.667V25.327H130.885V22.1002ZM130.98 26.7353H134.572V39.5446H130.98V26.7353Z" fill="white"/>
<path d="M138.544 35.9117V29.8417H137.032V26.7353H138.544V23.4697H142.138V26.7353H145.117V29.8417H142.138V35.3137C142.138 36.1505 142.492 36.5567 143.296 36.5567C143.915 36.5596 144.525 36.4037 145.068 36.1035V39.0181C144.211 39.5331 143.228 39.7934 142.231 39.7692C140.034 39.7692 138.544 38.8752 138.544 35.9117Z" fill="white"/>
<path d="M147.015 35.8647V35.8158C147.015 33.0196 149.119 31.7337 152.122 31.7337C153.177 31.7248 154.225 31.903 155.219 32.2603V32.044C155.219 30.5398 154.296 29.7029 152.499 29.7029C151.299 29.7043 150.111 29.94 149 30.3969L148.103 27.6252C149.644 26.9118 151.326 26.5628 153.02 26.6047C154.981 26.6047 156.4 27.1313 157.299 28.0334C158.244 28.9886 158.67 30.3989 158.67 32.1154V39.5447H155.187V38.1588C154.313 39.1385 153.107 39.7916 151.35 39.7916C148.97 39.7835 147.015 38.3976 147.015 35.8647ZM155.266 35.0279V34.383C154.543 34.0609 153.761 33.8981 152.972 33.9054C151.435 33.9054 150.49 34.5177 150.49 35.6729V35.7198C150.49 36.6995 151.298 37.273 152.453 37.273C154.123 37.273 155.258 36.3423 155.258 35.0279H155.266Z" fill="white"/>
<path d="M161.923 22.1002H165.516V39.5446H161.923V22.1002Z" fill="white"/>
<path d="M69.2557 46.7273H70.2642L72.2812 50.1222H72.3665L74.3835 46.7273H75.392L72.7642 51.0028V54H71.8835V51.0028L69.2557 46.7273ZM77.8619 54.1136C77.3694 54.1136 76.9374 53.9964 76.5657 53.7621C76.1964 53.5277 75.9076 53.1998 75.6992 52.7784C75.4933 52.357 75.3903 51.8646 75.3903 51.3011C75.3903 50.733 75.4933 50.237 75.6992 49.8132C75.9076 49.3894 76.1964 49.0604 76.5657 48.826C76.9374 48.5916 77.3694 48.4744 77.8619 48.4744C78.3543 48.4744 78.7852 48.5916 79.1545 48.826C79.5262 49.0604 79.815 49.3894 80.021 49.8132C80.2293 50.237 80.3335 50.733 80.3335 51.3011C80.3335 51.8646 80.2293 52.357 80.021 52.7784C79.815 53.1998 79.5262 53.5277 79.1545 53.7621C78.7852 53.9964 78.3543 54.1136 77.8619 54.1136ZM77.8619 53.3608C78.2359 53.3608 78.5437 53.2649 78.7852 53.0732C79.0266 52.8814 79.2054 52.6293 79.3214 52.3168C79.4374 52.0043 79.4954 51.6657 79.4954 51.3011C79.4954 50.9366 79.4374 50.5968 79.3214 50.282C79.2054 49.9671 79.0266 49.7126 78.7852 49.5185C78.5437 49.3243 78.2359 49.2273 77.8619 49.2273C77.4878 49.2273 77.18 49.3243 76.9386 49.5185C76.6971 49.7126 76.5183 49.9671 76.4023 50.282C76.2863 50.5968 76.2283 50.9366 76.2283 51.3011C76.2283 51.6657 76.2863 52.0043 76.4023 52.3168C76.5183 52.6293 76.6971 52.8814 76.9386 53.0732C77.18 53.2649 77.4878 53.3608 77.8619 53.3608ZM85.0502 51.7699V48.5455H85.8883V54H85.0502V53.0767H84.9934C84.8656 53.3537 84.6667 53.5893 84.3968 53.7834C84.127 53.9751 83.786 54.071 83.3741 54.071C83.0332 54.071 82.7302 53.9964 82.465 53.8473C82.1999 53.6958 81.9915 53.4685 81.84 53.1655C81.6885 52.8601 81.6127 52.4754 81.6127 52.0114V48.5455H82.4508V51.9545C82.4508 52.3523 82.5621 52.6695 82.7846 52.9062C83.0095 53.143 83.296 53.2614 83.644 53.2614C83.8523 53.2614 84.0642 53.2081 84.2797 53.1016C84.4975 52.995 84.6797 52.8317 84.8265 52.6115C84.9757 52.3913 85.0502 52.1108 85.0502 51.7699ZM87.4233 54V48.5455H88.233V49.3693H88.2898C88.3892 49.0994 88.5691 48.8804 88.8295 48.7124C89.09 48.5443 89.3835 48.4602 89.7102 48.4602C89.7718 48.4602 89.8487 48.4614 89.9411 48.4638C90.0334 48.4661 90.1032 48.4697 90.1506 48.4744V49.3267C90.1222 49.3196 90.0571 49.3089 89.9553 49.2947C89.8558 49.2782 89.7505 49.2699 89.6392 49.2699C89.3741 49.2699 89.1373 49.3255 88.929 49.4368C88.723 49.5457 88.5597 49.6972 88.4389 49.8913C88.3205 50.0831 88.2614 50.3021 88.2614 50.5483V54H87.4233ZM94.7946 50.7188V54H93.9565V46.7273H94.7946V49.3977H94.8656C94.9934 49.116 95.1852 48.8923 95.4409 48.7266C95.6989 48.5585 96.0422 48.4744 96.4707 48.4744C96.8424 48.4744 97.1679 48.549 97.4473 48.6982C97.7266 48.8449 97.9432 49.071 98.0971 49.3764C98.2534 49.6795 98.3315 50.0653 98.3315 50.5341V54H97.4934V50.5909C97.4934 50.1577 97.381 49.8227 97.1561 49.5859C96.9335 49.3468 96.6246 49.2273 96.2292 49.2273C95.9546 49.2273 95.7084 49.2853 95.4906 49.4013C95.2752 49.5173 95.1047 49.6866 94.9792 49.9091C94.8561 50.1316 94.7946 50.4015 94.7946 50.7188ZM102.152 54.1136C101.626 54.1136 101.173 53.9976 100.792 53.7656C100.413 53.5312 100.12 53.2045 99.9144 52.7855C99.7108 52.3641 99.609 51.8741 99.609 51.3153C99.609 50.7566 99.7108 50.2642 99.9144 49.8381C100.12 49.4096 100.407 49.0758 100.774 48.8366C101.143 48.5952 101.574 48.4744 102.066 48.4744C102.35 48.4744 102.631 48.5218 102.908 48.6165C103.185 48.7112 103.437 48.8651 103.664 49.0781C103.892 49.2888 104.073 49.5682 104.208 49.9162C104.343 50.2642 104.41 50.6927 104.41 51.2017V51.5568H100.206V50.8324H103.558C103.558 50.5246 103.496 50.25 103.373 50.0085C103.252 49.767 103.08 49.5765 102.855 49.4368C102.632 49.2971 102.369 49.2273 102.066 49.2273C101.733 49.2273 101.444 49.3101 101.2 49.4759C100.958 49.6392 100.773 49.8523 100.642 50.1151C100.512 50.3778 100.447 50.6596 100.447 50.9602V51.4432C100.447 51.8551 100.518 52.2043 100.66 52.4908C100.805 52.7749 101.005 52.9915 101.26 53.1406C101.516 53.2874 101.813 53.3608 102.152 53.3608C102.372 53.3608 102.571 53.33 102.748 53.2685C102.928 53.2045 103.083 53.1098 103.213 52.9844C103.344 52.8565 103.444 52.6979 103.515 52.5085L104.325 52.7358C104.24 53.0104 104.096 53.2519 103.895 53.4602C103.694 53.6662 103.445 53.8272 103.15 53.9432C102.854 54.0568 102.521 54.1136 102.152 54.1136ZM107.29 54.1278C106.944 54.1278 106.631 54.0627 106.349 53.9325C106.067 53.8 105.844 53.6094 105.678 53.3608C105.512 53.1098 105.429 52.8068 105.429 52.4517C105.429 52.1392 105.491 51.8859 105.614 51.6918C105.737 51.4953 105.902 51.3414 106.108 51.2301C106.314 51.1188 106.541 51.036 106.789 50.9815C107.04 50.9247 107.292 50.8797 107.546 50.8466C107.877 50.804 108.146 50.772 108.352 50.7507C108.56 50.727 108.712 50.688 108.806 50.6335C108.904 50.5791 108.952 50.4844 108.952 50.3494V50.321C108.952 49.9706 108.856 49.6984 108.664 49.5043C108.475 49.3101 108.187 49.2131 107.801 49.2131C107.401 49.2131 107.088 49.3007 106.86 49.4759C106.633 49.651 106.473 49.8381 106.381 50.0369L105.586 49.7528C105.728 49.4214 105.917 49.1634 106.154 48.9787C106.393 48.7917 106.653 48.6615 106.935 48.5881C107.219 48.5123 107.498 48.4744 107.773 48.4744C107.948 48.4744 108.15 48.4957 108.377 48.5384C108.606 48.5786 108.828 48.6626 109.041 48.7905C109.256 48.9183 109.435 49.1113 109.577 49.3693C109.719 49.6274 109.79 49.973 109.79 50.4062V54H108.952V53.2614H108.909C108.853 53.3797 108.758 53.5064 108.625 53.6413C108.493 53.7763 108.316 53.8911 108.096 53.9858C107.876 54.0805 107.607 54.1278 107.29 54.1278ZM107.418 53.375C107.749 53.375 108.029 53.3099 108.256 53.1797C108.486 53.0495 108.658 52.8814 108.775 52.6754C108.893 52.4695 108.952 52.2528 108.952 52.0256V51.2585C108.917 51.3011 108.838 51.3402 108.718 51.3757C108.599 51.4089 108.462 51.4384 108.306 51.4645C108.152 51.4882 108.002 51.5095 107.855 51.5284C107.71 51.545 107.593 51.5592 107.503 51.571C107.285 51.5994 107.082 51.6456 106.892 51.7095C106.705 51.7711 106.554 51.8646 106.438 51.9901C106.324 52.1132 106.267 52.2812 106.267 52.4943C106.267 52.7855 106.375 53.0057 106.591 53.1548C106.808 53.3016 107.084 53.375 107.418 53.375ZM112.158 46.7273V54H111.32V46.7273H112.158ZM116.065 48.5455V49.2557H113.238V48.5455H116.065ZM114.062 47.2386H114.9V52.4375C114.9 52.6742 114.935 52.8518 115.003 52.9702C115.074 53.0862 115.164 53.1643 115.273 53.2045C115.384 53.2424 115.502 53.2614 115.625 53.2614C115.717 53.2614 115.793 53.2566 115.852 53.2472C115.911 53.2353 115.958 53.2259 115.994 53.2188L116.164 53.9716C116.108 53.9929 116.028 54.0142 115.926 54.0355C115.825 54.0592 115.696 54.071 115.539 54.071C115.303 54.071 115.071 54.0201 114.843 53.9183C114.618 53.8165 114.431 53.6615 114.282 53.4531C114.136 53.2448 114.062 52.982 114.062 52.6648V47.2386ZM118.281 50.7188V54H117.443V46.7273H118.281V49.3977H118.352C118.48 49.116 118.672 48.8923 118.927 48.7266C119.185 48.5585 119.529 48.4744 119.957 48.4744C120.329 48.4744 120.654 48.549 120.934 48.6982C121.213 48.8449 121.43 49.071 121.583 49.3764C121.74 49.6795 121.818 50.0653 121.818 50.5341V54H120.98V50.5909C120.98 50.1577 120.867 49.8227 120.642 49.5859C120.42 49.3468 120.111 49.2273 119.716 49.2273C119.441 49.2273 119.195 49.2853 118.977 49.4013C118.761 49.5173 118.591 49.6866 118.466 49.9091C118.342 50.1316 118.281 50.4015 118.281 50.7188ZM128.379 54.1136C127.887 54.1136 127.455 53.9964 127.083 53.7621C126.714 53.5277 126.425 53.1998 126.217 52.7784C126.011 52.357 125.908 51.8646 125.908 51.3011C125.908 50.733 126.011 50.237 126.217 49.8132C126.425 49.3894 126.714 49.0604 127.083 48.826C127.455 48.5916 127.887 48.4744 128.379 48.4744C128.872 48.4744 129.303 48.5916 129.672 48.826C130.044 49.0604 130.333 49.3894 130.539 49.8132C130.747 50.237 130.851 50.733 130.851 51.3011C130.851 51.8646 130.747 52.357 130.539 52.7784C130.333 53.1998 130.044 53.5277 129.672 53.7621C129.303 53.9964 128.872 54.1136 128.379 54.1136ZM128.379 53.3608C128.753 53.3608 129.061 53.2649 129.303 53.0732C129.544 52.8814 129.723 52.6293 129.839 52.3168C129.955 52.0043 130.013 51.6657 130.013 51.3011C130.013 50.9366 129.955 50.5968 129.839 50.282C129.723 49.9671 129.544 49.7126 129.303 49.5185C129.061 49.3243 128.753 49.2273 128.379 49.2273C128.005 49.2273 127.698 49.3243 127.456 49.5185C127.215 49.7126 127.036 49.9671 126.92 50.282C126.804 50.5968 126.746 50.9366 126.746 51.3011C126.746 51.6657 126.804 52.0043 126.92 52.3168C127.036 52.6293 127.215 52.8814 127.456 53.0732C127.698 53.2649 128.005 53.3608 128.379 53.3608ZM135.568 51.7699V48.5455H136.406V54H135.568V53.0767H135.511C135.383 53.3537 135.184 53.5893 134.914 53.7834C134.645 53.9751 134.304 54.071 133.892 54.071C133.551 54.071 133.248 53.9964 132.983 53.8473C132.717 53.6958 132.509 53.4685 132.358 53.1655C132.206 52.8601 132.13 52.4754 132.13 52.0114V48.5455H132.968V51.9545C132.968 52.3523 133.08 52.6695 133.302 52.9062C133.527 53.143 133.814 53.2614 134.162 53.2614C134.37 53.2614 134.582 53.2081 134.797 53.1016C135.015 52.995 135.197 52.8317 135.344 52.6115C135.493 52.3913 135.568 52.1108 135.568 51.7699ZM137.941 54V48.5455H138.751V49.3693H138.807C138.907 49.0994 139.087 48.8804 139.347 48.7124C139.608 48.5443 139.901 48.4602 140.228 48.4602C140.289 48.4602 140.366 48.4614 140.459 48.4638C140.551 48.4661 140.621 48.4697 140.668 48.4744V49.3267C140.64 49.3196 140.575 49.3089 140.473 49.2947C140.373 49.2782 140.268 49.2699 140.157 49.2699C139.892 49.2699 139.655 49.3255 139.447 49.4368C139.241 49.5457 139.077 49.6972 138.956 49.8913C138.838 50.0831 138.779 50.3021 138.779 50.5483V54H137.941ZM146.534 54.1136C146.079 54.1136 145.678 53.9988 145.33 53.7692C144.982 53.5372 144.71 53.2105 144.513 52.7891C144.317 52.3653 144.218 51.8646 144.218 51.2869C144.218 50.714 144.317 50.2169 144.513 49.7955C144.71 49.3741 144.983 49.0485 145.333 48.8189C145.684 48.5893 146.089 48.4744 146.548 48.4744C146.903 48.4744 147.184 48.5336 147.39 48.652C147.598 48.768 147.757 48.9006 147.865 49.0497C147.977 49.1965 148.063 49.3172 148.125 49.4119H148.196V46.7273H149.034V54H148.224V53.1619H148.125C148.063 53.2614 147.975 53.3868 147.862 53.5384C147.748 53.6875 147.586 53.8213 147.375 53.9396C147.165 54.0556 146.884 54.1136 146.534 54.1136ZM146.647 53.3608C146.984 53.3608 147.268 53.2732 147.5 53.098C147.732 52.9205 147.908 52.6754 148.029 52.3629C148.15 52.0481 148.21 51.6847 148.21 51.2727C148.21 50.8655 148.151 50.5092 148.032 50.2038C147.914 49.8961 147.739 49.657 147.507 49.4865C147.275 49.3137 146.988 49.2273 146.647 49.2273C146.292 49.2273 145.996 49.3184 145.76 49.5007C145.525 49.6806 145.349 49.9257 145.23 50.2358C145.114 50.5436 145.056 50.8892 145.056 51.2727C145.056 51.661 145.116 52.0137 145.234 52.331C145.355 52.6458 145.532 52.8968 145.767 53.0838C146.003 53.2685 146.297 53.3608 146.647 53.3608ZM154.123 51.7699V48.5455H154.961V54H154.123V53.0767H154.066C153.938 53.3537 153.739 53.5893 153.469 53.7834C153.199 53.9751 152.858 54.071 152.446 54.071C152.105 54.071 151.802 53.9964 151.537 53.8473C151.272 53.6958 151.064 53.4685 150.912 53.1655C150.761 52.8601 150.685 52.4754 150.685 52.0114V48.5455H151.523V51.9545C151.523 52.3523 151.634 52.6695 151.857 52.9062C152.082 53.143 152.368 53.2614 152.716 53.2614C152.925 53.2614 153.136 53.2081 153.352 53.1016C153.57 52.995 153.752 52.8317 153.899 52.6115C154.048 52.3913 154.123 52.1108 154.123 51.7699ZM158.868 48.5455V49.2557H156.041V48.5455H158.868ZM156.865 47.2386H157.703V52.4375C157.703 52.6742 157.737 52.8518 157.806 52.9702C157.877 53.0862 157.967 53.1643 158.076 53.2045C158.187 53.2424 158.304 53.2614 158.427 53.2614C158.52 53.2614 158.595 53.2566 158.655 53.2472C158.714 53.2353 158.761 53.2259 158.797 53.2188L158.967 53.9716C158.91 53.9929 158.831 54.0142 158.729 54.0355C158.627 54.0592 158.498 54.071 158.342 54.071C158.105 54.071 157.873 54.0201 157.646 53.9183C157.421 53.8165 157.234 53.6615 157.085 53.4531C156.938 53.2448 156.865 52.982 156.865 52.6648V47.2386ZM160.668 56.0455C160.526 56.0455 160.399 56.0336 160.288 56.0099C160.177 55.9886 160.1 55.9673 160.057 55.946L160.27 55.2074C160.474 55.2595 160.654 55.2784 160.81 55.2642C160.966 55.25 161.105 55.1802 161.226 55.0547C161.349 54.9316 161.461 54.7315 161.563 54.4545L161.719 54.0284L159.702 48.5455H160.611L162.117 52.892H162.174L163.68 48.5455H164.589L162.273 54.7955C162.169 55.0772 162.04 55.3104 161.886 55.495C161.732 55.6821 161.554 55.8205 161.35 55.9105C161.149 56.0005 160.921 56.0455 160.668 56.0455Z" fill="white"/>
</svg>
